<?xml version="1.0" encoding="UTF-8"?>
<svg version="1.1" xmlns="http://www.w3.org/2000/svg" width="1536" height="1024">
<path d="M0 0 C506.88 0 1013.76 0 1536 0 C1536 337.92 1536 675.84 1536 1024 C1029.12 1024 522.24 1024 0 1024 C0 686.08 0 348.16 0 0 Z " fill="#FEFEFE" transform="translate(0,0)"/>
<path d="M0 0 C7.53990674 6.16674492 11.61171171 13.72253101 12.72265625 23.375 C13.03100825 31.91148172 10.08849337 40.81570834 4.484375 47.3046875 C0.02143104 50.89444677 -3.91655108 53.90491902 -9.515625 55.3046875 C-9.515625 90.9446875 -9.515625 126.5846875 -9.515625 163.3046875 C-11.825625 161.9846875 -14.135625 160.6646875 -16.515625 159.3046875 C-17.52027298 158.92457016 -18.52492096 158.54445282 -19.56001282 158.15281677 C-23.08596806 156.61165215 -25.04651894 155.28868573 -27.515625 152.3046875 C-29.64355824 145.33136856 -28.93299141 137.60227208 -28.80859375 130.40234375 C-28.8105164 128.23757492 -28.81728428 126.07280543 -28.82868958 123.9080658 C-28.8456623 118.22395354 -28.79698625 112.54224057 -28.73449707 106.85852051 C-28.68233472 101.05348032 -28.69244276 95.24858244 -28.69726562 89.44335938 C-28.69756479 78.06308145 -28.62849087 66.68436647 -28.515625 55.3046875 C-32.3935006 53.03233647 -32.3935006 53.03233647 -36.69018555 52.43725586 C-38.78926531 53.4347188 -40.09402715 54.52575157 -41.72265625 56.18359375 C-42.3053125 56.77076172 -42.88796875 57.35792969 -43.48828125 57.96289062 C-44.39900391 58.90551758 -44.39900391 58.90551758 -45.328125 59.8671875 C-45.95976562 60.50978516 -46.59140625 61.15238281 -47.2421875 61.81445312 C-50.80809189 65.46526 -54.22927616 69.19522647 -57.52734375 73.08984375 C-60.51542449 76.41841306 -63.67051435 79.57504683 -66.828125 82.7421875 C-67.76398438 83.68481445 -67.76398438 83.68481445 -68.71875 84.64648438 C-69.30785156 85.23365234 -69.89695312 85.82082031 -70.50390625 86.42578125 C-71.03540283 86.9561499 -71.56689941 87.48651855 -72.11450195 88.03295898 C-75.24657088 90.87577952 -78.06828876 90.42556086 -82.16845703 90.41821289 C-83.19302002 90.41843193 -83.19302002 90.41843193 -84.23828125 90.4186554 C-86.5000321 90.41795773 -88.761701 90.41017215 -91.0234375 90.40234375 C-92.58999588 90.40047905 -94.15655484 90.39905539 -95.72311401 90.39805603 C-99.84952398 90.39423493 -103.97589884 90.3844081 -108.10229492 90.37335205 C-112.31168137 90.3631292 -116.52107347 90.35855653 -120.73046875 90.35351562 C-128.99220362 90.34278548 -137.25390995 90.32571392 -145.515625 90.3046875 C-145.79022049 90.90492737 -146.06481598 91.50516724 -146.34773254 92.12359619 C-148.14375873 95.47775529 -150.89338289 97.90515656 -153.58984375 100.5390625 C-154.1919014 101.13591858 -154.79395905 101.73277466 -155.41426086 102.34771729 C-157.33918415 104.25486315 -159.27063847 106.15520816 -161.203125 108.0546875 C-163.7312561 110.54606786 -166.25595121 113.04086283 -168.77734375 115.5390625 C-169.38411453 116.13924698 -169.99088531 116.73943146 -170.61604309 117.35780334 C-174.22903102 120.95366559 -177.613826 124.65931704 -180.89819336 128.55908203 C-182.76729998 130.57630653 -184.7866968 132.259131 -186.91796875 133.99609375 C-196.65180498 141.99630895 -196.65180498 141.99630895 -200.6171875 153.5234375 C-200.75595919 159.16379338 -200.33299998 164.72508616 -199.515625 170.3046875 C-198.81179688 169.7478125 -198.10796875 169.1909375 -197.3828125 168.6171875 C-171.94261182 148.95583136 -142.20324702 137.81834395 -109.953125 137.9921875 C-108.89955811 137.99492172 -108.89955811 137.99492172 -107.82470703 137.99771118 C-90.56039181 138.07298022 -74.74749459 140.36426032 -58.515625 146.3046875 C-57.83290527 146.55202637 -57.15018555 146.79936523 -56.44677734 147.05419922 C-41.12703334 152.70990077 -26.80440741 160.46414981 -14.515625 171.3046875 C-13.69964844 172.01238281 -12.88367188 172.72007812 -12.04296875 173.44921875 C3.35358883 187.03721625 15.05556442 201.1416793 24.484375 219.3046875 C24.96583984 220.21275146 24.96583984 220.21275146 25.45703125 221.13916016 C31.12022797 231.92944555 37.484375 245.96957703 37.484375 258.3046875 C19.664375 258.3046875 1.844375 258.3046875 -16.515625 258.3046875 C-18.495625 249.3946875 -18.495625 249.3946875 -20.515625 240.3046875 C-29.36977967 215.150839 -44.55576852 195.59443784 -68.63452148 183.93383789 C-90.37592905 173.82697891 -115.50918894 171.6754926 -138.34765625 179.59375 C-163.11092698 188.704381 -181.23613254 205.56876102 -192.515625 229.3046875 C-196.51036619 238.70063705 -198.37132642 248.29796081 -200.515625 258.3046875 C-218.005625 258.3046875 -235.495625 258.3046875 -253.515625 258.3046875 C-247.47758938 234.15254503 -238.89471404 208.98954393 -220.34985352 191.23071289 C-217.62300413 186.88074751 -218.21105205 183.10837608 -218.46875 178.09765625 C-218.51277808 176.04499718 -218.55301611 173.992254 -218.58984375 171.93945312 C-218.66546778 168.72835918 -218.76390453 165.52537924 -218.93017578 162.31762695 C-219.8375469 143.53271072 -219.8375469 143.53271072 -214.11523438 136.50634766 C-210.83651583 133.0448413 -207.27093803 130.02757888 -203.55175781 127.05349731 C-200.77408741 124.66778985 -198.47898092 121.97568509 -196.11993408 119.18424988 C-193.88794818 116.56931939 -191.49435615 114.18873848 -189.046875 111.7734375 C-188.56287231 111.29322144 -188.07886963 110.81300537 -187.5802002 110.3182373 C-185.55262854 108.30668871 -183.51899651 106.30131097 -181.48583984 104.29541016 C-175.59926884 98.48064965 -169.89426137 92.59921855 -164.515625 86.3046875 C-162.89390498 84.51174516 -161.2510322 82.73746672 -159.578125 80.9921875 C-158.80597656 80.17105469 -158.03382813 79.34992188 -157.23828125 78.50390625 C-150.00895454 72.66443575 -142.73640942 72.96411663 -133.81363678 73.19964981 C-131.67550711 73.25103933 -129.5387674 73.27435651 -127.40008545 73.28903198 C-121.32536976 73.33089877 -115.25250633 73.38379573 -109.1796875 73.54785156 C-91.79688866 74.87955703 -91.79688866 74.87955703 -76.06030273 69.62939453 C-72.90682634 66.5614857 -70.77445462 63.0603646 -68.515625 59.3046875 C-66.23583984 56.84912109 -66.23583984 56.84912109 -64.01953125 54.78125 C-63.02856445 53.80865234 -63.02856445 53.80865234 -62.01757812 52.81640625 C-60.69884541 51.53353031 -59.37847047 50.25234079 -58.05664062 48.97265625 C-54.02889515 45.01263745 -50.47289199 41.13743793 -47.515625 36.3046875 C-47.845625 35.3146875 -48.175625 34.3246875 -48.515625 33.3046875 C-49.30654541 21.76502908 -48.74652809 13.37082162 -41.328125 4.0546875 C-30.24669662 -7.91038926 -13.37514452 -9.01368435 0 0 Z " fill="#094D81" transform="translate(490.515625,374.6953125)"/>
<path d="M0 0 C63.64655172 0 63.64655172 0 74.125 8.9375 C80.12786153 15.54064769 82.4301015 23.76218191 82.26953125 32.53515625 C81.52932986 39.30424435 79.02668167 44.48253119 73.9375 49 C71.68376003 50.79953134 69.40306193 52.39795871 67 54 C67.87011719 54.52787109 67.87011719 54.52787109 68.7578125 55.06640625 C76.47647233 59.94470116 82.19791656 65.04834016 85 74 C85.44337193 76.78452554 85.52515314 79.49598516 85.5 82.3125 C85.49427979 83.05870605 85.48855957 83.80491211 85.48266602 84.57373047 C85.21499563 92.88142601 82.34492696 98.66390227 76.8125 104.8125 C57.4076234 122.73770191 21.40379216 116 0 116 C0 77.72 0 39.44 0 0 Z " fill="#072F4C" transform="translate(910,447)"/>
<path d="M0 0 C7.66505351 4.51904894 13.41147303 10.82035659 16.24609375 19.32421875 C17.08913333 30.60890573 16.79567106 39.01607409 9.7421875 48.3046875 C4.45545629 54.27933072 -2.37959711 57.90830083 -10.328125 58.6640625 C-15.07473883 58.70946051 -19.50224507 58.61815853 -24.13574219 57.5300293 C-27.78783941 56.96153101 -27.78783941 56.96153101 -30.45703125 59.10327148 C-31.2975 59.97927002 -32.13796875 60.85526855 -33.00390625 61.7578125 C-33.46571289 62.22856705 -33.92751953 62.69932159 -34.40332031 63.18434143 C-35.8733213 64.69234415 -37.31301009 66.22593783 -38.75390625 67.76171875 C-39.72082962 68.76023562 -40.6895661 69.75700011 -41.66015625 70.75195312 C-45.61240568 74.82761548 -49.48124235 78.95883885 -53.16015625 83.28515625 C-56.16462097 86.77497827 -59.41481121 89.98105725 -62.72265625 93.1796875 C-63.25221924 93.69432053 -63.78178223 94.20895355 -64.32739258 94.73918152 C-66.53028656 96.87884137 -68.73354947 99.01735003 -70.95996094 101.13256836 C-72.60301212 102.69716455 -74.22645128 104.28000739 -75.84765625 105.8671875 C-76.60991516 106.57828926 -76.60991516 106.57828926 -77.38757324 107.30375671 C-78.97091364 108.80716377 -78.97091364 108.80716377 -80.75390625 111.32421875 C-80.58565483 114.72460429 -79.55203464 117.03747854 -77.75390625 119.88671875 C-74.29540019 125.83102605 -74.01221266 131.53686 -74.75390625 138.32421875 C-77.23530241 147.54248954 -81.79684456 154.6390066 -89.9765625 159.69921875 C-94.99869792 162.32421875 -94.99869792 162.32421875 -97.75390625 162.32421875 C-97.72392799 163.46482002 -97.72392799 163.46482002 -97.69334412 164.62846375 C-97.51183044 171.849853 -97.37540445 179.07011282 -97.2875967 186.29320049 C-97.24093141 190.00546988 -97.17781616 193.71583086 -97.07495117 197.42700195 C-96.97602203 201.01930315 -96.92311909 204.60978839 -96.90001106 208.20334816 C-96.8756676 210.21818203 -96.80559068 212.23230028 -96.73423767 214.24601746 C-96.72842886 225.01568645 -100.23818874 230.18021234 -106.75390625 238.32421875 C-108.25036294 240.71612966 -109.51966429 243.12600559 -110.81640625 245.63671875 C-111.66912109 247.27060547 -111.66912109 247.27060547 -112.5390625 248.9375 C-112.93996094 249.72511719 -113.34085938 250.51273438 -113.75390625 251.32421875 C-114.08390625 251.32421875 -114.41390625 251.32421875 -114.75390625 251.32421875 C-114.75390625 221.62421875 -114.75390625 191.92421875 -114.75390625 161.32421875 C-116.40390625 160.99421875 -118.05390625 160.66421875 -119.75390625 160.32421875 C-128.03007293 154.64728567 -132.62654163 147.70631261 -135.75390625 138.32421875 C-136.80951659 127.92386114 -134.08849358 119.32761148 -127.6015625 111.1484375 C-123.46128967 107.06068399 -118.25031148 104.15635383 -112.75390625 102.32421875 C-111.63886719 102.50082031 -110.52382812 102.67742187 -109.375 102.859375 C-103.53253228 103.70836522 -98.39951993 104.09095418 -93.30810547 100.69091797 C-87.56687225 95.76080821 -82.6458137 90.07733888 -77.75390625 84.32421875 C-73.19971394 78.99718432 -68.48369973 73.91493908 -63.5078125 68.98046875 C-62.85183578 68.32590698 -62.19585907 67.67134521 -61.52000427 66.99694824 C-59.4545048 64.93698052 -57.3855303 62.88054509 -55.31640625 60.82421875 C-53.90276191 59.41559825 -52.48934839 58.00674608 -51.07617188 56.59765625 C-47.63807476 53.17049742 -44.19685969 49.74649856 -40.75390625 46.32421875 C-40.96249268 45.70281006 -41.1710791 45.08140137 -41.38598633 44.44116211 C-41.65822021 43.62784424 -41.9304541 42.81452637 -42.2109375 41.9765625 C-42.48139893 41.16952881 -42.75186035 40.36249512 -43.03051758 39.53100586 C-45.88489415 30.82337514 -45.83048167 21.62296158 -41.75390625 13.32421875 C-32.94821865 -1.40084773 -15.90904841 -7.44512118 0 0 Z " fill="#0C4978" transform="translate(350.75390625,349.67578125)"/>
<path d="M0 0 C1.90866725 1.42644213 3.7399317 2.88575122 5.5234375 4.46484375 C5.8534375 2.15484375 6.1834375 -0.15515625 6.5234375 -2.53515625 C13.7834375 -2.53515625 21.0434375 -2.53515625 28.5234375 -2.53515625 C28.59149663 8.06217306 28.64641608 18.65935472 28.67887402 29.25685406 C28.69446036 34.1788877 28.71556857 39.1007627 28.74975586 44.02270508 C28.78260212 48.78193002 28.80034324 53.54100338 28.80806923 58.30033302 C28.81356775 60.10661006 28.82430359 61.91287978 28.84062767 63.71909142 C28.97542734 79.26742539 28.25155191 94.76677911 17.28125 106.8671875 C8.42610453 114.91553083 -2.80382334 116.98263776 -14.3515625 116.90234375 C-15.36347656 116.92232422 -16.37539062 116.94230469 -17.41796875 116.96289062 C-28.16171443 116.95601243 -38.32054923 113.63968249 -46.4765625 106.46484375 C-51.50099862 100.83596419 -54.33589809 96.06072212 -54.4765625 88.46484375 C-50.81382825 88.06810658 -47.14912361 87.75573968 -43.4765625 87.46484375 C-42.496875 87.36171875 -41.5171875 87.25859375 -40.5078125 87.15234375 C-33.4404887 86.68636636 -33.4404887 86.68636636 -30.62890625 88.95703125 C-29.1015625 90.83984375 -29.1015625 90.83984375 -27.890625 92.73828125 C-25.95941804 95.09627428 -24.40314517 95.62984674 -21.4765625 96.46484375 C-13.1036079 97.27119772 -5.52404895 97.47940142 1.5234375 92.46484375 C5.40078141 87.46181935 5.64782069 82.90316253 5.5859375 76.71484375 C5.57691406 75.544375 5.56789063 74.37390625 5.55859375 73.16796875 C5.54699219 72.2759375 5.53539062 71.38390625 5.5234375 70.46484375 C5.12253906 70.86316406 4.72164062 71.26148438 4.30859375 71.671875 C-3.0977538 78.57438938 -10.40905985 80.00252073 -20.38256836 79.95483398 C-29.77302927 79.59480576 -37.94915187 75.99629618 -44.73046875 69.46875 C-54.50635972 58.24943888 -56.70443069 45.10739979 -55.72216797 30.67333984 C-54.39494882 18.73892195 -48.33519534 10.12231497 -39.24609375 2.625 C-27.79111095 -5.66719109 -12.39782114 -7.68508471 0 0 Z " fill="#08314F" transform="translate(1259.4765625,481.53515625)"/>
<path d="M0 0 C7.59 0 15.18 0 23 0 C23 40.26 23 80.52 23 122 C15.74 122 8.48 122 1 122 C0.505 118.04 0.505 118.04 0 114 C-1.4540625 115.36125 -1.4540625 115.36125 -2.9375 116.75 C-10.59954456 123.17819643 -17.26386791 124.68944509 -27.28125 124.37890625 C-36.61170451 123.42821918 -44.42264935 119.7138617 -51 113 C-60.72890176 100.48870805 -63.36496407 86.61340368 -62 71 C-59.58916308 58.24322862 -53.4739078 48.6393849 -43 41 C-35.11905684 36.50031958 -26.45344868 34.64137922 -17.4765625 36.53125 C-10.76636863 38.38511738 -5.96661507 41.03338493 -1 46 C-0.67 30.82 -0.34 15.64 0 0 Z " fill="#08304E" transform="translate(1168,441)"/>
<path d="M0 0 C7.53990674 6.16674492 11.61171171 13.72253101 12.72265625 23.375 C13.03100825 31.91148172 10.08849337 40.81570834 4.484375 47.3046875 C0.02143104 50.89444677 -3.91655108 53.90491902 -9.515625 55.3046875 C-9.515625 90.9446875 -9.515625 126.5846875 -9.515625 163.3046875 C-11.825625 161.9846875 -14.135625 160.6646875 -16.515625 159.3046875 C-17.52027298 158.92457016 -18.52492096 158.54445282 -19.56001282 158.15281677 C-23.08596806 156.61165215 -25.04651894 155.28868573 -27.515625 152.3046875 C-29.64355824 145.33136856 -28.93299141 137.60227208 -28.80859375 130.40234375 C-28.8105164 128.23757492 -28.81728428 126.07280543 -28.82868958 123.9080658 C-28.8456623 118.22395354 -28.79698625 112.54224057 -28.73449707 106.85852051 C-28.68233472 101.05348032 -28.69244276 95.24858244 -28.69726562 89.44335938 C-28.69756479 78.06308145 -28.62849087 66.68436647 -28.515625 55.3046875 C-32.3935006 53.03233647 -32.3935006 53.03233647 -36.69018555 52.43725586 C-38.78926531 53.4347188 -40.09402715 54.52575157 -41.72265625 56.18359375 C-42.3055542 56.77100342 -42.88845215 57.35841309 -43.48901367 57.96362305 C-44.09592041 58.59179932 -44.70282715 59.21997559 -45.328125 59.8671875 C-45.95759033 60.50760986 -46.58705566 61.14803223 -47.2355957 61.80786133 C-50.86574842 65.52468176 -54.36426087 69.31683019 -57.71875 73.28515625 C-61.76299253 77.83053319 -66.17992654 82.03955195 -70.515625 86.3046875 C-70.515625 82.71556338 -69.85125946 82.19611721 -67.515625 79.6171875 C-66.6803125 78.68326172 -66.6803125 78.68326172 -65.828125 77.73046875 C-65.395 77.25996094 -64.961875 76.78945313 -64.515625 76.3046875 C-65.155 76.1809375 -65.794375 76.0571875 -66.453125 75.9296875 C-67.4740625 75.6203125 -67.4740625 75.6203125 -68.515625 75.3046875 C-68.845625 74.6446875 -69.175625 73.9846875 -69.515625 73.3046875 C-70.505625 74.2946875 -70.505625 74.2946875 -71.515625 75.3046875 C-74.140625 74.9296875 -74.140625 74.9296875 -76.515625 74.3046875 C-77.19482422 72.03881836 -77.19482422 72.03881836 -77.515625 69.3046875 C-76.40283203 67.38500977 -76.40283203 67.38500977 -74.6484375 65.55859375 C-73.99907227 64.87168457 -73.34970703 64.18477539 -72.68066406 63.47705078 C-71.96620117 62.7601709 -71.25173828 62.04329102 -70.515625 61.3046875 C-69.79342773 60.57362793 -69.07123047 59.84256836 -68.32714844 59.08935547 C-65.24754925 56.00908999 -62.13362532 52.96505727 -59.01171875 49.92773438 C-54.67423748 45.6524261 -50.666488 41.54087269 -47.515625 36.3046875 C-47.845625 35.3146875 -48.175625 34.3246875 -48.515625 33.3046875 C-49.30654541 21.76502908 -48.74652809 13.37082162 -41.328125 4.0546875 C-30.24669662 -7.91038926 -13.37514452 -9.01368435 0 0 Z " fill="#0C4979" transform="translate(490.515625,374.6953125)"/>
<path d="M0 0 C7.59 0 15.18 0 23 0 C23.33 14.85 23.66 29.7 24 45 C26.64 43.02 29.28 41.04 32 39 C40.60455352 35.20387345 49.43156049 34.37909982 58.375 37.6875 C67.4653089 41.87631434 71.18346284 47.9444451 75.25 56.6875 C76.77126972 61.37808162 77.12442731 66.00771097 77.11352539 70.91357422 C77.11341209 72.62466873 77.11341209 72.62466873 77.11329651 74.37033081 C77.10813522 75.58616852 77.10297394 76.80200623 77.09765625 78.0546875 C77.0962413 79.31137238 77.09482635 80.56805725 77.09336853 81.86282349 C77.08873074 85.1869194 77.0797618 88.51094542 77.06866455 91.83502197 C77.05839401 95.23375854 77.05385887 98.63250235 77.04882812 102.03125 C77.03781699 108.68752166 77.02056155 115.34375127 77 122 C69.41 122 61.82 122 54 122 C53.98541748 120.33501465 53.97083496 118.6700293 53.95581055 116.95458984 C53.89779051 110.77077883 53.82055675 104.58733052 53.73754883 98.40380859 C53.70267998 95.72863786 53.67628119 93.05376362 53.65356445 90.37841797 C53.61998733 86.53062212 53.56766721 82.68346511 53.51171875 78.8359375 C53.50532883 77.64197357 53.4989389 76.44800964 53.49235535 75.21786499 C53.42526185 67.15915987 53.42526185 67.15915987 50 60 C45.14823994 57.1460235 40.52979585 56.02223649 35 57 C31.23982334 58.39599373 28.55950437 60.25399417 26.125 63.5 C24.33754028 67.47213272 23.86850047 70.88254389 23.79467773 75.22753906 C23.77473251 76.26831604 23.75478729 77.30909302 23.73423767 78.38140869 C23.70916893 80.05659576 23.70916893 80.05659576 23.68359375 81.765625 C23.66281265 82.91415955 23.64203156 84.06269409 23.62062073 85.24603271 C23.55525007 88.91396111 23.49629806 92.58196093 23.4375 96.25 C23.39430293 98.73698654 23.35068825 101.22396587 23.30664062 103.7109375 C23.19879585 109.80721953 23.09962895 115.90355599 23 122 C15.41 122 7.82 122 0 122 C0 81.74 0 41.48 0 0 Z " fill="#062F4C" transform="translate(815,441)"/>
<path d="M0 0 C8.99129243 6.62429772 12.57717273 14.7315182 16.0625 25.1875 C16.0625 31.1275 16.0625 37.0675 16.0625 43.1875 C-3.0775 43.1875 -22.2175 43.1875 -41.9375 43.1875 C-39.00439699 53.9507513 -39.00439699 53.9507513 -32 61.5625 C-26.69003462 64.27470214 -20.70755916 64.02600613 -14.9375 63.1875 C-10.40802411 61.36737319 -7.64088096 59.24257144 -4.9375 55.1875 C-2.78271484 54.84692383 -2.78271484 54.84692383 -0.1484375 54.89453125 C0.79257813 54.90419922 1.73359375 54.91386719 2.703125 54.92382812 C3.68796875 54.94896484 4.6728125 54.97410156 5.6875 55 C7.17636719 55.02030273 7.17636719 55.02030273 8.6953125 55.04101562 C11.15158072 55.07644257 13.60677285 55.12583804 16.0625 55.1875 C14.32662776 64.4559538 8.66270544 70.78104471 1.0625 76.1875 C-9.87463 81.75228608 -22.16126644 82.84758273 -34.1796875 80.57421875 C-44.56459604 77.15773435 -53.08425988 70.65201993 -58.5 61.1484375 C-64.89010086 47.98621889 -66.43773772 33.61538121 -61.875 19.625 C-57.73269269 9.5601241 -51.29892576 1.65170036 -41.34765625 -3.03125 C-27.28012486 -8.81525703 -13.1787357 -8.2477658 0 0 Z " fill="#082F4C" transform="translate(1364.9375,483.8125)"/>
<path d="M0 0 C8.53634725 5.91227086 13.35713221 14.38499885 16.43359375 24.23828125 C17.37823822 30.56739917 17.05859375 37.02655577 17.05859375 43.42578125 C-2.08140625 43.42578125 -21.22140625 43.42578125 -40.94140625 43.42578125 C-38.00830324 54.18903255 -38.00830324 54.18903255 -31.00390625 61.80078125 C-25.69394087 64.51298339 -19.71146541 64.26428738 -13.94140625 63.42578125 C-9.41193036 61.60565444 -6.64478721 59.48085269 -3.94140625 55.42578125 C-1.78662109 55.08520508 -1.78662109 55.08520508 0.84765625 55.1328125 C1.78867187 55.14248047 2.7296875 55.15214844 3.69921875 55.16210938 C4.6840625 55.18724609 5.66890625 55.21238281 6.68359375 55.23828125 C8.17246094 55.25858398 8.17246094 55.25858398 9.69140625 55.27929688 C12.14767447 55.31472382 14.6028666 55.36411929 17.05859375 55.42578125 C14.47946344 64.38835106 10.49652044 70.83406424 2.52734375 76.09765625 C-8.45629003 81.86067397 -21.00764196 83.24966711 -33.13671875 80.7734375 C-44.09553719 77.13610887 -52.39623382 70.55751918 -57.94140625 60.42578125 C-64.07155023 46.83854138 -64.6949443 32.56839977 -59.94140625 18.42578125 C-54.50885604 6.48279388 -47.79475957 0.1119376 -35.67578125 -4.62890625 C-23.54849694 -8.82148168 -10.89142854 -6.58145147 0 0 Z " fill="#072F4D" transform="translate(695.94140625,483.57421875)"/>
<path d="M0 0 C29.37 0 58.74 0 89 0 C89 6.93 89 13.86 89 21 C78.11 21 67.22 21 56 21 C56 52.35 56 83.7 56 116 C48.08 116 40.16 116 32 116 C32 84.65 32 53.3 32 21 C21.44 21 10.88 21 0 21 C0 14.07 0 7.14 0 0 Z " fill="#063250" transform="translate(552,447)"/>
<path d="M0 0 C2.02713311 1.43476404 3.82103362 2.93529984 5.62109375 4.64453125 C6.1625 5.15757812 6.70390625 5.670625 7.26171875 6.19921875 C11.60402187 10.78276093 16.62109375 18.1564617 16.62109375 24.64453125 C13.87180933 25.14876682 11.12178232 25.64806551 8.37109375 26.14453125 C7.59378906 26.28761719 6.81648437 26.43070312 6.015625 26.578125 C4.88447266 26.78115234 4.88447266 26.78115234 3.73046875 26.98828125 C3.03920898 27.11396484 2.34794922 27.23964844 1.63574219 27.36914062 C-0.37890625 27.64453125 -0.37890625 27.64453125 -4.37890625 27.64453125 C-5.6875 26.03515625 -5.6875 26.03515625 -6.81640625 23.89453125 C-9.49171394 19.24361173 -12.18611216 16.37546261 -17.37890625 14.64453125 C-22.99490541 14.27626901 -26.55556614 14.42897118 -31.37890625 17.64453125 C-37.29259533 23.42069268 -39.4869308 29.86383045 -39.75390625 38.08203125 C-39.47847258 46.28765946 -37.693191 53.28069297 -31.91015625 59.3046875 C-28.18355143 62.56546672 -24.40441548 63.11073382 -19.5 62.953125 C-14.94014421 62.28972057 -10.88456603 60.5927769 -8.0234375 56.890625 C-6.78244492 54.80984161 -6.78244492 54.80984161 -5.37890625 51.64453125 C-4.88390625 50.65453125 -4.88390625 50.65453125 -4.37890625 49.64453125 C2.67999112 50.35042099 9.63314339 51.42666511 16.62109375 52.64453125 C15.20925673 62.41665805 10.46673084 69.95343787 2.7421875 76.15234375 C-7.27562708 82.91183884 -18.61472319 83.89517973 -30.37890625 82.64453125 C-40.76543222 80.41614932 -49.55775314 74.78094796 -55.80859375 66.21875 C-63.24653925 54.02570004 -65.23017559 40.98264379 -62.73046875 27.0234375 C-59.18250483 14.39329243 -52.89908977 5.13800339 -41.37890625 -1.35546875 C-28.18573782 -7.66602221 -12.78691819 -7.28581382 0 0 Z " fill="#082F4C" transform="translate(787.37890625,482.35546875)"/>
<path d="M0 0 C0 7.26 0 14.52 0 22 C-2.18625 22.103125 -4.3725 22.20625 -6.625 22.3125 C-11.90323131 22.56147317 -15.38641991 23.42882141 -20 26 C-20.99 26.33 -21.98 26.66 -23 27 C-24.15020525 29.24743756 -24.15020525 29.24743756 -25 32 C-25.3407959 32.81936035 -25.6815918 33.6387207 -26.03271484 34.48291016 C-27.3750767 39.36379477 -27.35691321 44.0445932 -27.4140625 49.0859375 C-27.43342865 50.14285797 -27.4527948 51.19977844 -27.4727478 52.28872681 C-27.53232914 55.65073684 -27.57884342 59.01278151 -27.625 62.375 C-27.66319948 64.66017084 -27.70225236 66.94532758 -27.7421875 69.23046875 C-27.83961266 74.82023744 -27.91935262 80.40986349 -28 86 C-35.59 86 -43.18 86 -51 86 C-51 58.28 -51 30.56 -51 2 C-43.41 2 -35.82 2 -28 2 C-27.67 4.97 -27.34 7.94 -27 11 C-26.46375 10.2575 -25.9275 9.515 -25.375 8.75 C-18.15273194 0.38737382 -10.69384107 0 0 0 Z " fill="#073250" transform="translate(1059,477)"/>
<path d="M0 0 C7.59 0 15.18 0 23 0 C23 27.72 23 55.44 23 84 C15.41 84 7.82 84 0 84 C0 56.28 0 28.56 0 0 Z " fill="#062E4C" transform="translate(1070,479)"/>
<path d="M0 0 C5.71194536 3.28695447 8.60413506 8.1326194 10.625 14.3125 C10.93135234 17.04483168 11.10375941 19.46929062 11.0625 22.1875 C11.05492676 22.88786377 11.04735352 23.58822754 11.03955078 24.30981445 C10.83222966 30.84345629 9.62385081 35.99322403 5.19921875 40.890625 C0.22189512 45.36635787 -4.48858001 46.8130491 -11.0390625 46.6171875 C-16.99784815 45.83995459 -21.0287238 43.1403323 -24.75 38.5 C-29.54639978 31.43573727 -30.41579368 24.02374597 -28.91015625 15.76171875 C-27.03362449 8.44435526 -23.78791135 3.71705118 -17.625 -0.625 C-11.58713513 -2.59891736 -5.83232679 -2.67677685 0 0 Z " fill="#FAFBFB" transform="translate(1158.375,498.6875)"/>
<path d="M0 0 C5.6913539 2.74404563 9.22991375 6.88154763 11.75 12.625 C14.21687323 19.82230597 13.8510956 27.82555429 11.18359375 34.921875 C8.73226855 39.22585191 4.71281228 43.11639828 -0.05078125 44.66796875 C-6.71958537 45.80393739 -11.50052534 44.78927217 -17 41 C-22.87928247 35.76955726 -25.56414513 29.86042881 -26.4375 22.125 C-26.16012831 15.73284332 -23.60548416 9.93481424 -19.5625 5.0625 C-13.10570739 -0.13443064 -8.20205608 -1.00160793 0 0 Z " fill="#FAFBFB" transform="translate(1253,497)"/>
<path d="M0 0 C6.991875 -0.12375 6.991875 -0.12375 14.125 -0.25 C15.58437988 -0.28641602 17.04375977 -0.32283203 18.54736328 -0.36035156 C19.70993652 -0.3703418 20.87250977 -0.38033203 22.0703125 -0.390625 C23.84559326 -0.4220459 23.84559326 -0.4220459 25.65673828 -0.45410156 C30.86715873 0.25360853 33.9137352 2.79939154 37.375 6.625 C39.57739329 11.19920145 39.80343315 15.00897586 39 20 C36.8065619 24.46811466 34.51294863 26.90863356 30 29 C26.29472966 29.92009007 22.85385602 30.11719926 19.04296875 30.09765625 C18.04031982 30.09515869 17.0376709 30.09266113 16.00463867 30.09008789 C14.74498291 30.08098389 13.48532715 30.07187988 12.1875 30.0625 C8.165625 30.041875 4.14375 30.02125 0 30 C0 20.1 0 10.2 0 0 Z " fill="#FBFCFC" transform="translate(933,513)"/>
<path d="M0 0 C6.001875 -0.0928125 6.001875 -0.0928125 12.125 -0.1875 C13.37555176 -0.21481201 14.62610352 -0.24212402 15.91455078 -0.27026367 C23.11407695 -0.32419922 27.72367692 0.24099109 33.375 5 C35.86613133 9.59901169 35.85420452 13.88975895 35 19 C33.31161646 22.78018616 30.94020812 24.63366891 27.0625 26.14453125 C21.8178634 27.51961996 16.44170942 27.21114053 11.0625 27.125 C7.411875 27.08375 3.76125 27.0425 0 27 C0 18.09 0 9.18 0 0 Z " fill="#FBFCFC" transform="translate(933,467)"/>
<path d="M0 0 C3.86663143 3.11478643 6.30788929 5.79391385 7.1875 10.75 C7.50386859 14.84735906 6.59255013 17.37675981 4.25 20.8125 C-0.06876146 24.70991887 -2.74534723 26.17951401 -8.65234375 26.09375 C-13.08067527 25.50000723 -15.81627782 22.90184255 -18.625 19.625 C-20.22138096 15.63404759 -20.328556 12.05524402 -19.75 7.8125 C-18.27406483 4.57949914 -16.48407055 2.09089213 -13.75 -0.1875 C-8.97635638 -1.77871454 -4.59983145 -1.98629085 0 0 Z " fill="#F8FBFB" transform="translate(478.75,388.1875)"/>
<path d="M0 0 C4.02778888 4.27189729 4.55920049 7.9749666 4.44921875 13.7109375 C3.71287561 18.42650872 0.98496361 20.72907933 -2.75 23.5625 C-7.89999742 25.03392784 -11.59887471 24.89469826 -16.25 22.4375 C-19.47676998 19.73601816 -21.63946413 17.83166453 -22.40625 13.6015625 C-22.5010601 5.13976132 -22.5010601 5.13976132 -19.75 1.625 C-13.67931901 -3.63625686 -6.94527226 -4.28538075 0 0 Z " fill="#F9FBFC" transform="translate(345.9375,366.8125)"/>
<path d="M0 0 C3.62485923 2.11780616 6.79279058 4.89548796 8 9 C8.55906074 13.9383699 7.96215176 17.35257939 5.33203125 21.48828125 C2.28204332 24.9497045 -1.66453096 25.80921871 -6.0625 26.4375 C-10.65641039 25.75330058 -13.52901704 23.42025941 -16.8125 20.25 C-18.55937071 16.94013972 -19.1142614 13.69921291 -19 10 C-17.36491068 5.27640862 -15.11871492 2.78013257 -11 0 C-7.13193767 -1.28935411 -3.87468958 -1.07670958 0 0 Z " fill="#09314F" transform="translate(1088,443)"/>
<path d="M0 0 C3.00245308 1.80147185 5.40693472 3.81386943 7 7 C7.60110663 11.58819366 8.04707002 16.09473018 5.765625 20.24609375 C2.38448678 24.27165683 0.07872108 25.80389424 -5.3125 26.3125 C-10.44690309 25.87738109 -13.12076255 23.74963487 -16.8125 20.3125 C-18.69033025 16.65567268 -19.22800583 13.09697971 -19 9 C-15.08595135 0.70221687 -8.72714934 -2.74281836 0 0 Z " fill="#F9FCFB" transform="translate(251,470)"/>
<path d="M0 0 C4.04530393 2.26951107 7.00584284 5.12633528 8.8125 9.4375 C9.3075 13.3975 9.3075 13.3975 9.8125 17.4375 C-2.0675 17.4375 -13.9475 17.4375 -26.1875 17.4375 C-25.13140307 10.04482152 -23.64254959 6.41511146 -18.125 1.625 C-12.50728839 -2.55840226 -6.29994415 -2.7920207 0 0 Z " fill="#FAFCFC" transform="translate(1350.1875,495.5625)"/>
<path d="M0 0 C4.37990069 2.43998404 6.97362366 5.86729437 8.8125 10.5 C9.3075 13.965 9.3075 13.965 9.8125 17.5 C-2.0675 17.5 -13.9475 17.5 -26.1875 17.5 C-25.13140307 10.10732152 -23.64254959 6.47761146 -18.125 1.6875 C-12.52513316 -2.4826136 -6.31070548 -2.71312527 0 0 Z " fill="#FAFCFC" transform="translate(682.1875,495.5)"/>
<path d="M0 0 C29.37 0 58.74 0 89 0 C89 6.93 89 13.86 89 21 C78.11 21 67.22 21 56 21 C56 52.35 56 83.7 56 116 C48.08 116 40.16 116 32 116 C32 84.65 32 53.3 32 21 C21.44 21 10.88 21 0 21 C0 14.07 0 7.14 0 0 Z M1 1 C1 7.27 1 13.54 1 20 C11.89 20 22.78 20 34 20 C34 51.02 34 82.04 34 114 C40.93 114 47.86 114 55 114 C55 82.98 55 51.96 55 20 C65.89 20 76.78 20 88 20 C88 13.73 88 7.46 88 1 C59.29 1 30.58 1 1 1 Z " fill="#000513" transform="translate(552,447)"/>
<path d="M0 0 C7.59 0 15.18 0 23 0 C23 2.97 23 5.94 23 9 C22.67 9 22.34 9 22 9 C22 6.69 22 4.38 22 2 C15.4 2 8.8 2 2 2 C2 28.4 2 54.8 2 82 C8.6 82 15.2 82 22 82 C21.98428955 80.618125 21.9685791 79.23625 21.95239258 77.8125 C21.89788926 72.6613554 21.86357571 67.51023606 21.83520508 62.35888672 C21.82016488 60.13390815 21.79972754 57.90895899 21.77368164 55.68408203 C21.73708865 52.47681394 21.7202255 49.26993955 21.70703125 46.0625 C21.69154739 45.07572266 21.67606354 44.08894531 21.66011047 43.07226562 C21.65865181 37.0187538 22.38256323 32.49180474 25 27 C25.66 26.67 26.32 26.34 27 26 C26.78937424 26.58872894 26.57874847 27.17745789 26.36174011 27.7840271 C24.14686753 34.45377544 23.53307519 40.47818927 23.48828125 47.4765625 C23.47033005 48.52782318 23.45237885 49.57908386 23.43388367 50.66220093 C23.38018528 53.9830945 23.34601533 57.30384773 23.3125 60.625 C23.27929119 62.89194645 23.2447983 65.15887446 23.20898438 67.42578125 C23.12209174 72.95053652 23.06167605 78.47467703 23 84 C15.41 84 7.82 84 0 84 C0 56.28 0 28.56 0 0 Z " fill="#142138" transform="translate(1008,479)"/>
<path d="M0 0 C0.33 0 0.66 0 1 0 C1.72444694 3.89976407 2.12301012 7.58176917 2.11352539 11.54638672 C2.11344986 12.60703339 2.11337433 13.66768005 2.11329651 14.76046753 C2.10813522 15.88881012 2.10297394 17.01715271 2.09765625 18.1796875 C2.0962413 19.3475882 2.09482635 20.51548889 2.09336853 21.71878052 C2.08778498 25.43754674 2.07523544 29.15625207 2.0625 32.875 C2.05748288 35.4010408 2.05292034 37.92708254 2.04882812 40.453125 C2.03782093 46.63544002 2.02056755 52.81770969 2 59 C-5.26 59 -12.52 59 -20 59 C-20 40.52 -20 22.04 -20 3 C-16.625 7.5 -16.625 7.5 -16.65942383 11.95214844 C-16.65965042 12.93286316 -16.65987701 13.91357788 -16.66011047 14.92401123 C-16.67559433 15.97518127 -16.69107819 17.02635132 -16.70703125 18.109375 C-16.71127609 19.19132141 -16.71552094 20.27326782 -16.71989441 21.38800049 C-16.73668155 24.8422539 -16.77433473 28.29592304 -16.8125 31.75 C-16.82754675 34.09243949 -16.84123517 36.43488813 -16.85351562 38.77734375 C-16.88658534 44.51845415 -16.93836875 50.25912803 -17 56 C-11.06 56 -5.12 56 1 56 C0.67 37.52 0.34 19.04 0 0 Z " fill="#20364B" transform="translate(889,504)"/>
<path d="M0 0 C7.59 0 15.18 0 23 0 C22.67 0.99 22.34 1.98 22 3 C15.73 3 9.46 3 3 3 C3 28.74 3 54.48 3 81 C8.28 81 13.56 81 19 81 C19 81.33 19 81.66 19 82 C17.79601563 81.97679687 16.59203125 81.95359375 15.3515625 81.9296875 C13.77604785 81.91093137 12.20052652 81.89273101 10.625 81.875 C9.8309375 81.85824219 9.036875 81.84148437 8.21875 81.82421875 C6.14507985 81.80664527 4.07116759 81.89664832 2 82 C1.01 82.99 1.01 82.99 0 84 C0 56.28 0 28.56 0 0 Z " fill="#334C63" transform="translate(1070,479)"/>
<path d="M0 0 C0.66 0 1.32 0 2 0 C2 31.02 2 62.04 2 94 C8.93 94 15.86 94 23 94 C23 94.66 23 95.32 23 96 C15.41 96 7.82 96 0 96 C0 64.32 0 32.64 0 0 Z " fill="#02132B" transform="translate(584,467)"/>
<path d="M0 0 C7.59 0 15.18 0 23 0 C22.67 15.18 22.34 30.36 22 46 C21.67 46 21.34 46 21 46 C19.96939229 41.01005425 19.94551646 36.37532958 20.12109375 31.3203125 C20.14470474 30.50754852 20.16831573 29.69478455 20.19264221 28.85739136 C20.26877686 26.27972728 20.35301473 23.70240253 20.4375 21.125 C20.49077105 19.36980787 20.54351105 17.61459954 20.59570312 15.859375 C20.72333273 11.57264096 20.86193262 7.28646122 21 3 C14.73 3 8.46 3 2 3 C2 41.61 2 80.22 2 120 C1.67 120 1.34 120 1 120 C1.00092179 119.39370317 1.00184359 118.78740635 1.00279331 118.16273689 C1.02485758 103.42441375 1.04141598 88.68609157 1.05181217 73.94775581 C1.05697305 66.82047051 1.0640118 59.69319621 1.07543945 52.56591797 C1.08645401 45.69302134 1.09227764 38.82013619 1.09487724 31.94723129 C1.09673081 29.3196787 1.10035013 26.69212675 1.10573006 24.06457901 C1.11294542 20.39606602 1.11399073 16.72760093 1.11352539 13.05908203 C1.11712067 11.96288544 1.12071594 10.86668884 1.12442017 9.73727417 C1.1230455 8.74165466 1.12167084 7.74603516 1.12025452 6.72024536 C1.12163721 5.41775187 1.12163721 5.41775187 1.12304783 4.08894539 C1.13405634 1.93990823 1.13405634 1.93990823 0 0 Z " fill="#0A2C45" transform="translate(815,441)"/>
<path d="M0 0 C0.66 0 1.32 0 2 0 C2 35.64 2 71.28 2 108 C0.35 107.01 -1.3 106.02 -3 105 C-2.01 104.505 -2.01 104.505 -1 104 C-0.67 69.68 -0.34 35.36 0 0 Z " fill="#0B2F54" transform="translate(479,430)"/>
<path d="M0 0 C7.26 0 14.52 0 22 0 C22 25.74 22 51.48 22 78 C21.34 78 20.68 78 20 78 C20 52.92 20 27.84 20 2 C14.06 2.33 8.12 2.66 2 3 C2 4.98 2 6.96 2 9 C1.34 8.34 0.68 7.68 0 7 C0 4.69 0 2.38 0 0 Z " fill="#081932" transform="translate(1266,479)"/>
<path d="M0 0 C6.8448386 5.86700451 10.59204216 14.16826447 12 23 C12 27.95 12 32.9 12 38 C-7.14 38 -26.28 38 -46 38 C-43.28320284 47.07887205 -43.28320284 47.07887205 -39 55 C-42.72905817 53.75698061 -42.96411358 52.80107151 -44.6875 49.375 C-46.82094905 44.92924987 -47.52966869 41.87295197 -47 37 C-43.94655415 35.98218472 -41.89716208 35.87902759 -38.70239258 35.88647461 C-37.62149857 35.88655014 -36.54060455 35.88662567 -35.42695618 35.88670349 C-34.26125595 35.89186478 -33.09555573 35.89702606 -31.89453125 35.90234375 C-30.10301888 35.90446617 -30.10301888 35.90446617 -28.27531433 35.90663147 C-24.45435092 35.9122365 -20.63344575 35.92478989 -16.8125 35.9375 C-14.22461022 35.94251435 -11.63671952 35.94707737 -9.04882812 35.95117188 C-2.69919882 35.96220757 3.65039643 35.97895064 10 36 C9.8784497 33.45895705 9.74678056 30.91910114 9.609375 28.37890625 C9.57634277 27.66657837 9.54331055 26.95425049 9.50927734 26.22033691 C8.97291056 16.67793397 5.75992207 9.51989826 0 2 C0 1.34 0 0.68 0 0 Z " fill="#08182C" transform="translate(701,489)"/>
<path d="M0 0 C0.4125 0.66 0.825 1.32 1.25 2 C1.8275 2.66 2.405 3.32 3 4 C4.32 4 5.64 4 7 4 C7.66 3.34 8.32 2.68 9 2 C9.495 3.485 9.495 3.485 10 5 C12.01508358 5.73323796 12.01508358 5.73323796 14 6 C13 9 13 9 9.9375 10.6875 C8.968125 11.120625 7.99875 11.55375 7 12 C6.505 10.515 6.505 10.515 6 9 C5.01 9.33 4.02 9.66 3 10 C0.63477442 9.07796291 -1.70401807 8.08301035 -4 7 C-3.67 6.01 -3.34 5.02 -3 4 C-24.45 4 -45.9 4 -68 4 C-68 3.67 -68 3.34 -68 3 C-67.1775882 2.99191315 -66.35517639 2.98382629 -65.50784302 2.97549438 C-57.76763178 2.89764119 -50.02761158 2.81037911 -42.28763008 2.71247292 C-38.30816273 2.66246894 -34.32872247 2.61613953 -30.34912109 2.578125 C-26.51053118 2.54132363 -22.6721656 2.49497825 -18.83376694 2.44193649 C-17.36734822 2.42336503 -15.90088137 2.40826728 -14.43439102 2.39665604 C-12.38457379 2.37984012 -10.33527344 2.35081802 -8.28564453 2.31884766 C-6.533582 2.29886215 -6.533582 2.29886215 -4.74612427 2.2784729 C-1.85629428 2.27773433 -1.85629428 2.27773433 0 0 Z " fill="#3C6790" transform="translate(412,445)"/>
<path d="M0 0 C22.77 0 45.54 0 69 0 C69 0.66 69 1.32 69 2 C68.18202942 2.01030746 67.36405884 2.02061493 66.52130127 2.03123474 C58.81121627 2.12922842 51.10121096 2.23174555 43.39125443 2.33933926 C39.4275308 2.39449421 35.4637997 2.44790223 31.5 2.49731445 C27.67444278 2.5450677 23.84897343 2.59741427 20.02352142 2.65294075 C18.56432026 2.6733147 17.10509506 2.69203586 15.64585114 2.70907402 C13.60137754 2.73322817 11.55706852 2.76326713 9.51269531 2.79467773 C7.76729462 2.81799416 7.76729462 2.81799416 5.9866333 2.84178162 C3.48036303 2.97455253 1.38753779 3.26982912 -1 4 C-0.67 2.68 -0.34 1.36 0 0 Z " fill="#0E3B66" transform="translate(340,449)"/>
<path d="M0 0 C0 0.66 0 1.32 0 2 C0.66 2 1.32 2 2 2 C2.47456159 3.9321436 2.94887878 5.8643476 3.421875 7.796875 C3.91027027 9.65805696 4.50621255 11.49051474 5.125 13.3125 C6.11760692 17.49562917 6.06843542 21.17550491 5.875 25.44921875 C6.00906242 28.18492999 6.69211716 29.63555299 8 32 C7.9375 34.125 7.9375 34.125 7 36 C4.5625 37.1875 4.5625 37.1875 2 38 C1.01 38.495 1.01 38.495 0 39 C0.495 37.845 0.99 36.69 1.5 35.5 C4.30369084 26.96761395 4.66369791 16.49958416 0.875 8.25 C-2.12976707 3.1709193 -5.39059659 0.86980114 -11 -1 C-16.04936467 -1.29098034 -21.08614397 -1.31036161 -26 0 C-22.28785308 -7.42429384 -5.91231479 -2.40500941 0 0 Z " fill="#0C1C30" transform="translate(1165,499)"/>
<path d="M0 0 C10.88765721 0.17866925 20.67562274 2.76739177 28.6875 10.375 C29.49960937 11.14457031 29.49960937 11.14457031 30.328125 11.9296875 C34.67042812 16.51322968 39.6875 23.88693045 39.6875 30.375 C37.7075 30.375 35.7275 30.375 33.6875 30.375 C35.0075 30.045 36.3275 29.715 37.6875 29.375 C32.083892 16.49976837 32.083892 16.49976837 21.6875 7.375 C19.24531117 6.78763813 17.1398316 6.55604723 14.6328125 6.60546875 C12.6875 6.375 12.6875 6.375 11.33032227 4.89257812 C9.27513113 2.99406897 8.21791355 2.96118488 5.45703125 2.86328125 C4.25336914 2.81010742 4.25336914 2.81010742 3.02539062 2.75585938 C2.19201172 2.73330078 1.35863281 2.71074219 0.5 2.6875 C-0.7674707 2.63625977 -0.7674707 2.63625977 -2.06054688 2.58398438 C-4.14406649 2.50158529 -6.22826216 2.43661355 -8.3125 2.375 C-5.54953927 -0.38796073 -3.8647191 0.04298909 0 0 Z " fill="#0F1F31" transform="translate(764.3125,476.625)"/>
<path d="M0 0 C0.33 0 0.66 0 1 0 C1.33 27.39 1.66 54.78 2 83 C3.65 80.36 5.3 77.72 7 75 C7.33 75.66 7.66 76.32 8 77 C6.92325298 79.28258633 5.80453884 81.4356434 4.5625 83.625 C4.22412109 84.23601562 3.88574219 84.84703125 3.53710938 85.4765625 C2.69853808 86.988353 1.85017423 88.49470399 1 90 C0.67 90 0.34 90 0 90 C0 60.3 0 30.6 0 0 Z " fill="#082A4D" transform="translate(236,511)"/>
<path d="M0 0 C7.59 0 15.18 0 23 0 C22.67 15.18 22.34 30.36 22 46 C21.67 46 21.34 46 21 46 C19.96939229 41.01005425 19.94551646 36.37532958 20.12109375 31.3203125 C20.14470474 30.50754852 20.16831573 29.69478455 20.19264221 28.85739136 C20.26877686 26.27972728 20.35301473 23.70240253 20.4375 21.125 C20.49077105 19.36980787 20.54351105 17.61459954 20.59570312 15.859375 C20.72333273 11.57264096 20.86193262 7.28646122 21 3 C14.4 3 7.8 3 1 3 C0.67 2.01 0.34 1.02 0 0 Z " fill="#1A3248" transform="translate(815,441)"/>
<path d="M0 0 C1.32 0 2.64 0 4 0 C2.48397692 4.24486463 -0.16089161 5.82691978 -4 8 C-10.50749589 10.65612077 -17.05665559 10.18794015 -24 10 C-23.67 9.34 -23.34 8.68 -23 8 C-20.49609375 7.5859375 -20.49609375 7.5859375 -17.4375 7.375 C-16.42558594 7.30023437 -15.41367188 7.22546875 -14.37109375 7.1484375 C-13.58863281 7.09945312 -12.80617188 7.05046875 -12 7 C-12 5.68 -12 4.36 -12 3 C-11.484375 3.165 -10.96875 3.33 -10.4375 3.5 C-7.26636124 4.15049 -4.22781666 4.0620734 -1 4 C-0.67 2.68 -0.34 1.36 0 0 Z " fill="#0A2237" transform="translate(1260,551)"/>
<path d="M0 0 C0.33 0.66 0.66 1.32 1 2 C-2.12977795 9.66255982 -9.02963918 16.32826913 -16.5625 19.5 C-17.7690625 19.7475 -17.7690625 19.7475 -19 20 C-19 19.34 -19 18.68 -19 18 C-17.68 17.34 -16.36 16.68 -15 16 C-15.66 15.01 -16.32 14.02 -17 13 C-15.68 12.34 -14.36 11.68 -13 11 C-12.67 11.66 -12.34 12.32 -12 13 C-9.83333333 12.16666667 -9.83333333 12.16666667 -9 10 C-6.9375 8.875 -6.9375 8.875 -5 8 C-5 7.01 -5 6.02 -5 5 C-6.65 5 -8.3 5 -10 5 C-9.01 4.01 -8.02 3.02 -7 2 C-6.01 2.33 -5.02 2.66 -4 3 C-4 3.66 -4 4.32 -4 5 C-3.34 5 -2.68 5 -2 5 C-1.34 3.35 -0.68 1.7 0 0 Z " fill="#06263F" transform="translate(1379,542)"/>
<path d="M0 0 C0.33 0 0.66 0 1 0 C1.52255592 8.70926538 1.83331992 15.29204492 -2.80859375 22.94921875 C-3.99030638 24.98331425 -4.54911515 26.70411508 -5 29 C-7.31 29.66 -9.62 30.32 -12 31 C-12.66 30.01 -13.32 29.02 -14 28 C-12.72560478 25.45120955 -11.70177936 25.29655339 -9.125 24.1875 C-5.40663869 22.39816334 -3.65752508 20.90005901 -2 17 C-0.91419913 13.4551795 -0.69568197 9.9383138 -0.4375 6.25 C-0.35371094 5.07953125 -0.26992187 3.9090625 -0.18359375 2.703125 C-0.12300781 1.81109375 -0.06242187 0.9190625 0 0 Z " fill="#0A2037" transform="translate(1266,552)"/>
<path d="M0 0 C0.33 0.66 0.66 1.32 1 2 C0.21625 2.66 -0.5675 3.32 -1.375 4 C-4.6450562 7.73720709 -5.10209769 10.18397855 -6 15 C-5.34 15 -4.68 15 -4 15 C-4 15.66 -4 16.32 -4 17 C-3.34 17.33 -2.68 17.66 -2 18 C-2 18.99 -2 19.98 -2 21 C1.03525486 23.02350324 2.19426202 23.32124018 5.6875 23.625 C6.49574219 23.69976562 7.30398438 23.77453125 8.13671875 23.8515625 C8.75160156 23.90054687 9.36648438 23.94953125 10 24 C8 26 8 26 5.25 26.375 C0.44347496 25.82040096 -2.39182994 23.55271592 -5.8125 20.25 C-7.55937071 16.94013972 -8.1142614 13.69921291 -8 10 C-6.35896011 5.25921808 -4.07181753 2.86127718 0 0 Z " fill="#111F33" transform="translate(1077,443)"/>
<path d="M0 0 C7.0097165 0.28038866 12.4919947 2.83519923 18.73046875 5.8203125 C22.20402896 7.07361619 23.54861534 7.03720368 27 6 C27.99 6 28.98 6 30 6 C30 8 30 8 28.5 9.625 C28.005 10.07875 27.51 10.5325 27 11 C27.721875 11.226875 28.44375 11.45375 29.1875 11.6875 C32.53209313 13.24831013 34.51603959 15.3031287 37 18 C33.82397352 16.49598746 30.84042514 14.71931431 27.8203125 12.92749023 C18.8924901 7.69173057 9.85212632 4.10927254 0 1 C0 0.67 0 0.34 0 0 Z " fill="#0D2E55" transform="translate(402,550)"/>
<path d="M0 0 C0.99 0.33 1.98 0.66 3 1 C2.48817777 5.17917653 0.23850155 7.10710028 -2.69140625 9.984375 C-3.15610825 10.44483215 -3.62081024 10.90528931 -4.09959412 11.37969971 C-5.58031819 12.84367811 -7.07114519 14.29686041 -8.5625 15.75 C-9.57034664 16.74279449 -10.57751633 17.7362767 -11.58398438 18.73046875 C-14.04819461 21.16166473 -16.52157329 23.58328868 -19 26 C-19 23 -19 23 -16.62890625 20.40625 C-15.61400542 19.42992338 -14.59151759 18.46143651 -13.5625 17.5 C-9.48928923 13.8173574 -9.48928923 13.8173574 -7 9 C-6.34 9 -5.68 9 -5 9 C-4.34 7.35 -3.68 5.7 -3 4 C-2.01 4.33 -1.02 4.66 0 5 C0 3.35 0 1.7 0 0 Z " fill="#133458" transform="translate(310,496)"/>
<path d="M0 0 C1 4 1 4 -1 15 C-15.19 15 -29.38 15 -44 15 C-44 14.67 -44 14.34 -44 14 C-30.14 14 -16.28 14 -2 14 C-2.495 10.04 -2.495 10.04 -3 6 C-1.5625 2.5 -1.5625 2.5 0 0 Z " fill="#155488" transform="translate(290,617)"/>
<path d="M0 0 C0.66 0.33 1.32 0.66 2 1 C1.2575 1.5775 0.515 2.155 -0.25 2.75 C-3.84890614 5.65185605 -3.84890614 5.65185605 -7 9 C-7.33498301 11.66834966 -7.33498301 11.66834966 -7 14 C-7.66 14 -8.32 14 -9 14 C-9 14.99 -9 15.98 -9 17 C-9.66 17 -10.32 17 -11 17 C-11 17.66 -11 18.32 -11 19 C-11.99 19 -12.98 19 -14 19 C-14.33 19.66 -14.66 20.32 -15 21 C-14.65119927 14.02398535 -10.70552169 9.56951701 -5.82421875 4.93359375 C-3.91061817 3.25112077 -1.97775166 1.60629576 0 0 Z " fill="#11314B" transform="translate(1222,483)"/>
<path d="M0 0 C1.5 1.375 1.5 1.375 3 3 C3 3.66 3 4.32 3 5 C3.99 5.33 4.98 5.66 6 6 C10.12582791 13.45494422 10.73439923 21.64685578 11 30 C9.60785691 27.34088376 8.50979609 24.74082857 7.59765625 21.8828125 C7.22157227 20.72458984 7.22157227 20.72458984 6.83789062 19.54296875 C6.32359931 17.93920894 5.81056506 16.33504545 5.29882812 14.73046875 C3.84572659 10.26338935 2.14739172 6.19222146 0 2 C0 1.34 0 0.68 0 0 Z " fill="#103E6E" transform="translate(463,596)"/>
<path d="M0 0 C2.37310807 1.95781416 3.47733016 3.19902444 4.5 6.0625 C3.943125 5.588125 3.38625 5.11375 2.8125 4.625 C0.31653926 2.93854004 -1.5446237 2.47296893 -4.5 2.0625 C-4.5 1.4025 -4.5 0.7425 -4.5 0.0625 C-9.88207077 -2.17855897 -14.65745544 -2.17443988 -20.375 -2.0625 C-21.25414062 -2.05347656 -22.13328125 -2.04445313 -23.0390625 -2.03515625 C-25.1928271 -2.01174577 -27.34645014 -1.9758801 -29.5 -1.9375 C-22.54707564 -8.89042436 -7.38945713 -4.55983574 0 0 Z " fill="#0D1C2F" transform="translate(1161.5,481.9375)"/>
<path d="M0 0 C0.99 0.33 1.98 0.66 3 1 C3.6875 3.0625 3.6875 3.0625 4 5 C2.68 5 1.36 5 0 5 C-0.66 7.31 -1.32 9.62 -2 12 C-3.32 12 -4.64 12 -6 12 C-6.66 10.68 -7.32 9.36 -8 8 C-5.36 5.36 -2.72 2.72 0 0 Z " fill="#0B4F83" transform="translate(297,411)"/>
<path d="M0 0 C0 3.10551666 -0.5393715 4.35261084 -2 7 C-2.66 7 -3.32 7 -4 7 C-4 14.26 -4 21.52 -4 29 C-7.32989881 25.67010119 -7.09541498 21.77512517 -7.25 17.25 C-7.18885058 12.13637943 -6.31377803 7.58883175 -4 3 C-1.8125 0.9375 -1.8125 0.9375 0 0 Z " fill="#143159" transform="translate(313,360)"/>
<path d="M0 0 C6.93 0 13.86 0 21 0 C20.01 1.485 20.01 1.485 19 3 C19 2.34 19 1.68 19 1 C13.06 1 7.12 1 1 1 C1.33 2.32 1.66 3.64 2 5 C-0.31 6.65 -2.62 8.3 -5 10 C-5.66 9.67 -6.32 9.34 -7 9 C-5.76448756 5.29346269 -4.03334922 4.35084565 -1 2 C-0.67 1.34 -0.34 0.68 0 0 Z " fill="#06182A" transform="translate(692,539)"/>
<path d="M0 0 C1.45945288 0.08708669 2.91765868 0.19526907 4.375 0.3125 C5.59316406 0.39951172 5.59316406 0.39951172 6.8359375 0.48828125 C9 1 9 1 11 4 C9.1128125 3.9071875 9.1128125 3.9071875 7.1875 3.8125 C3.86656162 3.7399651 3.86656162 3.7399651 1.125 5.5 C0.75375 5.995 0.3825 6.49 0 7 C-0.66 7 -1.32 7 -2 7 C-2.66 8.32 -3.32 9.64 -4 11 C-4.99 11 -5.98 11 -7 11 C-6.21625 10.113125 -5.4325 9.22625 -4.625 8.3125 C-2.42843009 5.69279481 -1.06209659 3.28284399 0 0 Z " fill="#0D2238" transform="translate(783,532)"/>
<path d="M0 0 C0.98484375 0.00902344 1.9696875 0.01804687 2.984375 0.02734375 C4.10585938 0.04474609 4.10585938 0.04474609 5.25 0.0625 C5.25 1.0525 5.25 2.0425 5.25 3.0625 C-4.155 4.0525 -4.155 4.0525 -13.75 5.0625 C-12.43 4.4025 -11.11 3.7425 -9.75 3.0625 C-9.75 2.4025 -9.75 1.7425 -9.75 1.0625 C-6.43929162 0.06140485 -3.44915231 -0.04106134 0 0 Z " fill="#1D3349" transform="translate(672.75,476.9375)"/>
<path d="M0 0 C-3.38637433 3.38637433 -8.2044195 2.35706683 -12.8125 2.4609375 C-13.864375 2.63882812 -14.91625 2.81671875 -16 3 C-17.33101316 4.92148115 -17.33101316 4.92148115 -18 7 C-20.625 7.75 -20.625 7.75 -23 8 C-23 7.34 -23 6.68 -23 6 C-15.97100439 0.37680351 -8.7929113 -0.3663713 0 0 Z " fill="#101F31" transform="translate(1059,477)"/>
<path d="M0 0 C0.66 0 1.32 0 2 0 C0.66666667 2.66666667 -0.66666667 5.33333333 -2 8 C-5 8 -8 8 -11 8 C-9.93283928 6.79794536 -8.84561663 5.61367667 -7.75 4.4375 C-7.14671875 3.77621094 -6.5434375 3.11492187 -5.921875 2.43359375 C-4 1 -4 1 -1.765625 1.28515625 C-1.18296875 1.52105469 -0.6003125 1.75695312 0 2 C0 1.34 0 0.68 0 0 Z " fill="#0A406D" transform="translate(443,416)"/>
<path d="M0 0 C1.96715805 1.96715805 2.72616213 3.32968098 3.875 5.8125 C5.54548452 9.26022932 7.46495878 12.10281003 10 15 C7.50638429 13.79618552 5.31856917 12.54571278 3 11 C2.29875 10.855625 1.5975 10.71125 0.875 10.5625 C0.25625 10.376875 -0.3625 10.19125 -1 10 C-2.31223496 6.06329512 -1.24296256 3.87511856 0 0 Z " fill="#082035" transform="translate(747,529)"/>
<path d="M0 0 C0 0.66 0 1.32 0 2 C-0.74765625 2.25394531 -1.4953125 2.50789063 -2.265625 2.76953125 C-3.25046875 3.11371094 -4.2353125 3.45789063 -5.25 3.8125 C-6.22453125 4.14894531 -7.1990625 4.48539062 -8.203125 4.83203125 C-10.90108425 5.95869301 -12.84383463 7.03670263 -15 9 C-15.33 9.99 -15.66 10.98 -16 12 C-17.98 12.33 -19.96 12.66 -22 13 C-17.25149551 6.12285557 -8.68408507 0 0 0 Z " fill="#0B172A" transform="translate(1333,478)"/>
<path d="M0 0 C1.125 1.5625 1.125 1.5625 2 4 C1.125 7.75 1.125 7.75 0 11 C-0.66 11 -1.32 11 -2 11 C-2.61875 9.63875 -2.61875 9.63875 -3.25 8.25 C-4.89050718 5.20334382 -6.44718361 3.28873194 -9 1 C-7.02 1.66 -5.04 2.32 -3 3 C-2.01 2.01 -1.02 1.02 0 0 Z " fill="#06253C" transform="translate(870,496)"/>
<path d="M0 0 C1.32 0 2.64 0 4 0 C3.58221009 5.7097955 1.42453429 8.60957142 -2 13 C-2 12.01 -2 11.02 -2 10 C-2.02320313 9.34902344 -2.04640625 8.69804687 -2.0703125 8.02734375 C-2.12287305 6.01878006 -2.06375364 4.00823958 -2 2 C-1.34 1.34 -0.68 0.68 0 0 Z " fill="#0D3C67" transform="translate(362,385)"/>
<path d="M0 0 C0.33 0.66 0.66 1.32 1 2 C5.95 2 10.9 2 16 2 C16 2.33 16 2.66 16 3 C14.78763672 3.14695312 14.78763672 3.14695312 13.55078125 3.296875 C5.46310609 4.30423143 5.46310609 4.30423143 -1 9 C-1.625 6.1875 -1.625 6.1875 -2 3 C-1.34 2.01 -0.68 1.02 0 0 Z " fill="#0B3760" transform="translate(461,384)"/>
<path d="M0 0 C0.66 0 1.32 0 2 0 C1.4194679 3.30118794 0.45131901 4.91134076 -1.94140625 7.234375 C-2.52470703 7.80800781 -3.10800781 8.38164062 -3.70898438 8.97265625 C-4.32064453 9.55917969 -4.93230469 10.14570313 -5.5625 10.75 C-6.17802734 11.35199219 -6.79355469 11.95398438 -7.42773438 12.57421875 C-8.94514813 14.05634381 -10.47170596 15.5290967 -12 17 C-12 14 -12 14 -10.50390625 12.31640625 C-9.21236468 11.14960109 -7.92069853 9.98293383 -6.62890625 8.81640625 C-4.8667813 6.85144677 -4.40187006 5.57536444 -4 3 C-2.68 3 -1.36 3 0 3 C0 2.01 0 1.02 0 0 Z " fill="#133659" transform="translate(337,470)"/>
<path d="M0 0 C7.07741629 0.6811348 7.07741629 0.6811348 10.28515625 3.8125 C10.96578125 5.0190625 10.96578125 5.0190625 11.66015625 6.25 C11.33015625 6.91 11.00015625 7.57 10.66015625 8.25 C9.34015625 7.59 8.02015625 6.93 6.66015625 6.25 C6.66015625 5.59 6.66015625 4.93 6.66015625 4.25 C2.70015625 3.92 -1.25984375 3.59 -5.33984375 3.25 C-2.33984375 0.25 -2.33984375 0.25 0 0 Z " fill="#1A384F" transform="translate(1218.33984375,568.75)"/>
<path d="M0 0 C0 3 0 3 -2 8 C-10.415 8.495 -10.415 8.495 -19 9 C-19 8.67 -19 8.34 -19 8 C-17.80503906 7.74476563 -17.80503906 7.74476563 -16.5859375 7.484375 C-10.15539265 6.01364211 -4.77605443 4.77605443 0 0 Z " fill="#061A30" transform="translate(1359,541)"/>
<path d="M0 0 C-0.33 0.99 -0.66 1.98 -1 3 C-3.64 3.33 -6.28 3.66 -9 4 C-9 4.66 -9 5.32 -9 6 C-12.3 6.66 -15.6 7.32 -19 8 C-15.54407898 5.40805924 -12.86736011 3.93411514 -8.9375 2.3125 C-7.89464844 1.87550781 -6.85179687 1.43851563 -5.77734375 0.98828125 C-3 0 -3 0 0 0 Z " fill="#0D3562" transform="translate(336,521)"/>
<path d="M0 0 C2.97 0 5.94 0 9 0 C8.2575 0.53625 7.515 1.0725 6.75 1.625 C1.52955464 6.13356645 -0.4509121 10.13640124 -1 17 C-1.33 17 -1.66 17 -2 17 C-2.18172622 11.72993958 -1.85905838 7.9962194 0 3 C0 2.01 0 1.02 0 0 Z " fill="#0E3459" transform="translate(233,469)"/>
<path d="M0 0 C0.66 0.33 1.32 0.66 2 1 C-2.8794236 5.42197764 -7.84351749 7.7077331 -14.375 8.3125 C-17 8 -17 8 -19 6 C-17.96359375 5.81824219 -16.9271875 5.63648438 -15.859375 5.44921875 C-14.48947796 5.19588163 -13.11969194 4.9419437 -11.75 4.6875 C-11.06808594 4.56955078 -10.38617187 4.45160156 -9.68359375 4.33007812 C-5.74446501 3.58432074 -2.97338905 2.73582446 0 0 Z " fill="#0E2034" transform="translate(1272,589)"/>
<path d="M0 0 C7.75958885 2.19855018 14.15485378 5.77245623 21 10 C18.5054485 11.24727575 17.60628506 10.88934597 14.9375 10.25 C14.22464844 10.09015625 13.51179688 9.9303125 12.77734375 9.765625 C12.19082031 9.51296875 11.60429687 9.2603125 11 9 C10.67 8.01 10.34 7.02 10 6 C7.68130796 4.53706037 7.68130796 4.53706037 4.9375 3.3125 C4.01839844 2.87550781 3.09929687 2.43851563 2.15234375 1.98828125 C1.44207031 1.66214844 0.73179687 1.33601562 0 1 C0 0.67 0 0.34 0 0 Z " fill="#12345E" transform="translate(438,524)"/>
<path d="M0 0 C1 3 1 3 0.5625 5.125 C-0.84641247 12.32610815 0.13997524 18.97508505 2 26 C0 25 0 25 -1.07421875 22.37890625 C-2.03990353 18.85436055 -2.51537743 15.57824189 -2.8125 11.9375 C-2.97685547 10.15666016 -2.97685547 10.15666016 -3.14453125 8.33984375 C-2.9850797 4.65522 -2.15139329 2.94079341 0 0 Z " fill="#051529" transform="translate(1130,509)"/>
<path d="M0 0 C3 2 3 2 3.75 4.8125 C4.36938037 10.5205152 3.55596308 16.31207 3 22 C2.01 21.34 1.02 20.68 0 20 C0.66 20 1.32 20 2 20 C1.34 13.4 0.68 6.8 0 0 Z " fill="#19334B" transform="translate(1377,504)"/>
<path d="M0 0 C0.66 0 1.32 0 2 0 C3.36176922 1.64351457 4.68962066 3.31522656 6 5 C9.84531565 9.37938727 13.75950259 11.6723349 19 14 C16 15 16 15 13.73046875 14.06640625 C7.78232115 10.54868455 3.52680814 7.00704314 0 1 C0 0.67 0 0.34 0 0 Z " fill="#071224" transform="translate(1208,580)"/>
<path d="M0 0 C5.28 0 10.56 0 16 0 C16 0.33 16 0.66 16 1 C11.38 1.33 6.76 1.66 2 2 C2.33 4.31 2.66 6.62 3 9 C2.34 8.67 1.68 8.34 1 8 C0.40644386 5.35139573 0.25790731 2.70802678 0 0 Z " fill="#0B192B" transform="translate(1205,570)"/>
<path d="M0 0 C2.015625 1.546875 2.015625 1.546875 4 4 C4.171875 7.453125 4.171875 7.453125 3.75 11.25 C3.62109375 12.51328125 3.4921875 13.7765625 3.359375 15.078125 C3.24078125 16.04234375 3.1221875 17.0065625 3 18 C2.67 18 2.34 18 2 18 C2 14.7 2 11.4 2 8 C0.68 7.34 -0.64 6.68 -2 6 C-1.34 4.02 -0.68 2.04 0 0 Z " fill="#18527D" transform="translate(363,365)"/>
<path d="M0 0 C0.66 0.33 1.32 0.66 2 1 C2 3 2 3 0.5 4.625 C0.005 5.07875 -0.49 5.5325 -1 6 C0.0828125 6.3403125 0.0828125 6.3403125 1.1875 6.6875 C4.53209313 8.24831013 6.51603959 10.3031287 9 13 C6.19550072 11.63241271 3.48556336 10.17235617 0.8125 8.5625 C0.11769531 8.15128906 -0.57710938 7.74007812 -1.29296875 7.31640625 C-3 6 -3 6 -4 3 C-2.68 2.01 -1.36 1.02 0 0 Z " fill="#113D6A" transform="translate(430,555)"/>
<path d="M0 0 C2.97 0.495 2.97 0.495 6 1 C6.144375 1.78375 6.28875 2.5675 6.4375 3.375 C6.87798925 5.96421018 6.87798925 5.96421018 8 8 C8.04022391 10.3329866 8.04320247 12.66706666 8 15 C7.34 15 6.68 15 6 15 C5.85304688 14.00419922 5.85304688 14.00419922 5.703125 12.98828125 C4.79525337 7.62714274 3.97963587 3.97963587 0 0 Z " fill="#1E2F42" transform="translate(962,468)"/>
<path d="M0 0 C1.32168051 2.17688554 2.0131712 3.55217933 1.9375 6.125 C1 8 1 8 -1.4375 9.1875 C-2.283125 9.455625 -3.12875 9.72375 -4 10 C-4.99 10.495 -4.99 10.495 -6 11 C-5.01 8.03 -4.02 5.06 -3 2 C-2.34 2 -1.68 2 -1 2 C-0.67 1.34 -0.34 0.68 0 0 Z " fill="#0B263F" transform="translate(1171,527)"/>
<path d="M0 0 C1.5625 1.6875 1.5625 1.6875 3 4 C2.6875 6.75 2.6875 6.75 2 9 C0.02 8.34 -1.96 7.68 -4 7 C-2.92598892 4.08482708 -2.22189824 2.22189824 0 0 Z " fill="#0B4472" transform="translate(412,445)"/>
<path d="M0 0 C0.66666667 2 1.33333333 4 2 6 C-2.43076923 8.09230769 -2.43076923 8.09230769 -5.3125 7.625 C-5.869375 7.41875 -6.42625 7.2125 -7 7 C-4.66666667 4.66666667 -2.33333333 2.33333333 0 0 Z " fill="#134068" transform="translate(257,489)"/>
<path d="M0 0 C1.32 0 2.64 0 4 0 C3.09539273 3.70066609 2.56131642 5.56497978 -0.5 7.9375 C-1.325 8.288125 -2.15 8.63875 -3 9 C-3.66 8.67 -4.32 8.34 -5 8 C-4.360625 7.236875 -3.72125 6.47375 -3.0625 5.6875 C-0.85767219 3.11753287 -0.85767219 3.11753287 0 0 Z " fill="#082037" transform="translate(968,483)"/>
<path d="M0 0 C1.32 1.65 2.64 3.3 4 5 C-2.75 9 -2.75 9 -5 9 C-5 8.34 -5 7.68 -5 7 C-3.68 6.34 -2.36 5.68 -1 5 C-1.66 4.01 -2.32 3.02 -3 2 C-2.01 1.34 -1.02 0.68 0 0 Z " fill="#0A263D" transform="translate(1365,553)"/>
<path d="M0 0 C1.45823212 -0.0270043 2.91660675 -0.04639787 4.375 -0.0625 C5.18710937 -0.07410156 5.99921875 -0.08570313 6.8359375 -0.09765625 C9 0 9 0 11 1 C11 1.99 11 2.98 11 4 C7.7 3.67 4.4 3.34 1 3 C0.67 2.01 0.34 1.02 0 0 Z " fill="#1D4A7B" transform="translate(391,547)"/>
<path d="M0 0 C0.515625 0.391875 1.03125 0.78375 1.5625 1.1875 C0.5725 1.1875 -0.4175 1.1875 -1.4375 1.1875 C-2.0975 2.5075 -2.7575 3.8275 -3.4375 5.1875 C-6.4075 4.6925 -6.4075 4.6925 -9.4375 4.1875 C-9.4375 3.5275 -9.4375 2.8675 -9.4375 2.1875 C-3.0375 -1.0125 -3.0375 -1.0125 0 0 Z " fill="#10293E" transform="translate(1234.4375,478.8125)"/>
<path d="M0 0 C-0.33 0.66 -0.66 1.32 -1 2 C-2.9609375 2.6328125 -2.9609375 2.6328125 -5.375 3.125 C-6.16648437 3.29257812 -6.95796875 3.46015625 -7.7734375 3.6328125 C-10 4 -10 4 -13 4 C-11.68 3.34 -10.36 2.68 -9 2 C-9 1.34 -9 0.68 -9 0 C-5.93109813 -1.53445094 -3.29905734 -0.54984289 0 0 Z " fill="#1F344A" transform="translate(1087,443)"/>
<path d="M0 0 C0.99 0.33 1.98 0.66 3 1 C2.34 1 1.68 1 1 1 C1.12375 1.721875 1.2475 2.44375 1.375 3.1875 C0.93998169 6.45013736 0.44438849 6.8041996 -2 8.8125 C-2.99 9.534375 -3.98 10.25625 -5 11 C-5.33 9.68 -5.66 8.36 -6 7 C-4.68 6.67 -3.36 6.34 -2 6 C-2 5.34 -2 4.68 -2 4 C-1.34 4 -0.68 4 0 4 C0 2.68 0 1.36 0 0 Z " fill="#1D4A73" transform="translate(436,438)"/>
<path d="M0 0 C1.55741701 2.33612551 3.07282045 4.68345953 4.5625 7.0625 C4.99691406 7.75472656 5.43132812 8.44695312 5.87890625 9.16015625 C7 11 7 11 8 13 C6.25 12.875 6.25 12.875 4 12 C1.30729915 8.78371843 0.06229107 6.84092949 -0.25 2.625 C-0.12625 1.325625 -0.12625 1.325625 0 0 Z " fill="#E4F1F7" transform="translate(216,491)"/>
<path d="M0 0 C2.125 0.9375 2.125 0.9375 4 2 C4 2.66 4 3.32 4 4 C5.32 4.66 6.64 5.32 8 6 C3.38 5.34 -1.24 4.68 -6 4 C-2 1 -2 1 0 0 Z " fill="#0C2035" transform="translate(768,492)"/>
<path d="M0 0 C0.99 0 1.98 0 3 0 C3.3690205 9.41002278 3.3690205 9.41002278 1 14 C0.34 13.34 -0.32 12.68 -1 12 C-0.9765625 9.1796875 -0.9765625 9.1796875 -0.625 5.875 C-0.51414062 4.77929688 -0.40328125 3.68359375 -0.2890625 2.5546875 C-0.14597656 1.29011719 -0.14597656 1.29011719 0 0 Z " fill="#345F88" transform="translate(258,479)"/>
<path d="M0 0 C1.5 1.375 1.5 1.375 3 3 C3 3.66 3 4.32 3 5 C3.99 5.33 4.98 5.66 6 6 C6.33 8.97 6.66 11.94 7 15 C3.69383716 11.19791273 0 5.16418515 0 0 Z " fill="#0B3160" transform="translate(463,596)"/>
<path d="M0 0 C0.99 0.33 1.98 0.66 3 1 C1.66666667 2.33333333 0.33333333 3.66666667 -1 5 C-1.86625 5.886875 -2.7325 6.77375 -3.625 7.6875 C-6 10 -6 10 -8 11 C-7.43040847 7.37386801 -6.07625466 5.74482259 -3.4375 3.25 C-2.79683594 2.63640625 -2.15617187 2.0228125 -1.49609375 1.390625 C-1.00238281 0.93171875 -0.50867188 0.4728125 0 0 Z " fill="#DCE7EF" transform="translate(445,434)"/>
<path d="M0 0 C0.99 0.33 1.98 0.66 3 1 C2.67 3.31 2.34 5.62 2 8 C2.66 8 3.32 8 4 8 C3.67 9.65 3.34 11.3 3 13 C0.73437327 10.73437327 0.05537251 9.15839295 -0.09765625 5.95703125 C-0.06510417 3.97135417 -0.03255208 1.98567708 0 0 Z " fill="#081B31" transform="translate(725,526)"/>
<path d="M0 0 C2.31 0 4.62 0 7 0 C5.66783496 2.66433008 4.52848372 2.74447159 1.75 3.6875 C-1.85250691 4.83662501 -4.33117789 5.3018401 -8 4 C-8 3.67 -8 3.34 -8 3 C-5.36 2.34 -2.72 1.68 0 1 C0 0.67 0 0.34 0 0 Z " fill="#205182" transform="translate(365,513)"/>
<path d="M0 0 C3.96 0 7.92 0 12 0 C11.01 0.495 11.01 0.495 10 1 C10 1.66 10 2.32 10 3 C6.7 3 3.4 3 0 3 C0 2.01 0 1.02 0 0 Z " fill="#253B50" transform="translate(1241,579)"/>
<path d="M0 0 C0.66 0.33 1.32 0.66 2 1 C1.375 2.875 1.375 2.875 0 5 C-3.125 6.25 -3.125 6.25 -6 7 C-6.66 6.34 -7.32 5.68 -8 5 C-6.71475739 4.13619741 -5.42157581 3.28419631 -4.125 2.4375 C-3.04605469 1.72400391 -3.04605469 1.72400391 -1.9453125 0.99609375 C-1.30335938 0.66738281 -0.66140625 0.33867188 0 0 Z " fill="#0D2337" transform="translate(969,537)"/>
<path d="M0 0 C0 3.10551666 -0.5393715 4.35261084 -2 7 C-2.66 7 -3.32 7 -4 7 C-4.33 8.32 -4.66 9.64 -5 11 C-6 8 -6 8 -4.75 4.9375 C-3 2 -3 2 0 0 Z " fill="#193F68" transform="translate(313,360)"/>
<path d="M0 0 C0.99 0 1.98 0 3 0 C2.67 2.64 2.34 5.28 2 8 C3.32 8.33 4.64 8.66 6 9 C4.02 9 2.04 9 0 9 C-0.84454356 5.62182575 -1.10844919 3.32534757 0 0 Z " fill="#21507F" transform="translate(239,623)"/>
<path d="M0 0 C0.33 0.66 0.66 1.32 1 2 C0.00390625 4.6015625 0.00390625 4.6015625 -1.4375 7.625 C-1.91058594 8.62789063 -2.38367187 9.63078125 -2.87109375 10.6640625 C-3.24363281 11.43492187 -3.61617187 12.20578125 -4 13 C-5.3609623 10.2780754 -4.70366248 8.8168043 -4.0625 5.875 C-3.86785156 4.96492188 -3.67320313 4.05484375 -3.47265625 3.1171875 C-3.31667969 2.41851562 -3.16070313 1.71984375 -3 1 C-2.01 0.67 -1.02 0.34 0 0 Z " fill="#0D1D34" transform="translate(1327,500)"/>
<path d="M0 0 C0.99 0.33 1.98 0.66 3 1 C3.33 3.31 3.66 5.62 4 8 C2.68 8.33 1.36 8.66 0 9 C-1.0635774 5.80926781 -0.89019883 5.06624043 0 2 C0 1.34 0 0.68 0 0 Z " fill="#0A2A44" transform="translate(1088,458)"/>
<path d="M0 0 C1.61949011 2.57213134 2.04408751 3.67669159 1.625 6.75 C1.41875 7.4925 1.2125 8.235 1 9 C0.01 9.33 -0.98 9.66 -2 10 C-2.1953125 3.9453125 -2.1953125 3.9453125 -2 2 C-1.34 1.34 -0.68 0.68 0 0 Z " fill="#15344D" transform="translate(1267,523)"/>
<path d="M0 0 C0.66 0.33 1.32 0.66 2 1 C1.278125 1.556875 0.55625 2.11375 -0.1875 2.6875 C-2.97457299 4.97909334 -5.48641528 7.41459857 -8 10 C-8.66 9.67 -9.32 9.34 -10 9 C-8.71142987 7.68445979 -7.41904109 6.37265903 -6.125 5.0625 C-5.04605469 3.96615234 -5.04605469 3.96615234 -3.9453125 2.84765625 C-2 1 -2 1 0 0 Z " fill="#041529" transform="translate(1222,483)"/>
<path d="M0 0 C0 3.59422497 -1.14981068 4.99344236 -3 8 C-3 8.66 -3 9.32 -3 10 C-3.66 10 -4.32 10 -5 10 C-5.33 11.32 -5.66 12.64 -6 14 C-6.50547389 8.6925242 -5.22743563 6.17668141 -2 2 C-1.34 1.34 -0.68 0.68 0 0 Z " fill="#D9E9F0" transform="translate(238,471)"/>
<path d="M0 0 C0.33 0.66 0.66 1.32 1 2 C-0.125 4.5625 -0.125 4.5625 -2 7 C-4.6875 7.8125 -4.6875 7.8125 -7 8 C-6.02133662 6.85373678 -5.04205413 5.70800212 -4.0625 4.5625 C-3.51722656 3.92441406 -2.97195313 3.28632813 -2.41015625 2.62890625 C-1.63204305 1.73008851 -0.84063472 0.84063472 0 0 Z " fill="#0B365E" transform="translate(273,434)"/>
<path d="M0 0 C2.64 0.33 5.28 0.66 8 1 C8 1.66 8 2.32 8 3 C8.99 3.33 9.98 3.66 11 4 C3.49230769 3.38461538 3.49230769 3.38461538 1 1.4375 C0.67 0.963125 0.34 0.48875 0 0 Z " fill="#102136" transform="translate(1224,556)"/>
<path d="M0 0 C1.65 0.33 3.3 0.66 5 1 C1.98112756 4.48331435 -0.56909529 5.79157144 -5 7 C-3.625 5 -3.625 5 -2 3 C-1.34 3 -0.68 3 0 3 C0 2.01 0 1.02 0 0 Z " fill="#11354F" transform="translate(744,482)"/>
<path d="M0 0 C0 0.66 0 1.32 0 2 C-0.804375 2.45375 -1.60875 2.9075 -2.4375 3.375 C-5.15236193 4.73420995 -5.15236193 4.73420995 -5.8125 7.1875 C-5.9053125 8.0846875 -5.9053125 8.0846875 -6 9 C-6.99 9 -7.98 9 -9 9 C-7.67183131 4.6532661 -5.0855272 0 0 0 Z " fill="#E2F0F7" transform="translate(333,365)"/>
<path d="M0 0 C0 3.99904969 -1.72586967 5.80200422 -4 9 C-4.66 7.68 -5.32 6.36 -6 5 C-4.02 3.35 -2.04 1.7 0 0 Z " fill="#0F355F" transform="translate(249,577)"/>
<path d="M0 0 C1.32 0 2.64 0 4 0 C3.75 1.875 3.75 1.875 3 4 C0.9375 5.25 0.9375 5.25 -1 6 C-0.67 4.02 -0.34 2.04 0 0 Z " fill="#214971" transform="translate(296,428)"/>
<path d="M0 0 C2.31 0 4.62 0 7 0 C4.77747979 2.55589824 3.26648404 3.28545662 0 4 C-0.99 4.66 -1.98 5.32 -3 6 C-2 4 -1 2 0 0 Z " fill="#1A4F7F" transform="translate(321,403)"/>
<path d="M0 0 C0.66 1.32 1.32 2.64 2 4 C0.02 4.99 0.02 4.99 -2 6 C-2 5.34 -2 4.68 -2 4 C-3.32 4.33 -4.64 4.66 -6 5 C-2.25 1.125 -2.25 1.125 0 0 Z " fill="#073863" transform="translate(308,533)"/>
<path d="M0 0 C0.66 0 1.32 0 2 0 C1.42655063 2.86724686 1.1385485 3.8614515 -1 6 C-1.99 6 -2.98 6 -4 6 C-2.84826645 3.53199953 -1.95216435 1.95216435 0 0 Z " fill="#1D3043" transform="translate(647,486)"/>
<path d="M0 0 C1.67542976 0.28604898 3.34385343 0.61781233 5 1 C3.63016497 4.16115776 3.0109362 4.9927092 0 7 C-0.38133299 5.0085944 -0.71325582 3.00720923 -1 1 C-0.67 0.67 -0.34 0.34 0 0 Z " fill="#0C3D67" transform="translate(314,490)"/>
<path d="M0 0 C0.33 0.99 0.66 1.98 1 3 C-2.625 6 -2.625 6 -6 6 C-6 5.34 -6 4.68 -6 4 C-4.03852126 2.61061923 -2.03833424 1.2739589 0 0 Z " fill="#152A3F" transform="translate(1042,479)"/>
<path d="M0 0 C1.32 0 2.64 0 4 0 C2.95125002 2.62187494 2.35068687 3.79371361 -0.125 5.25 C-0.74375 5.4975 -1.3625 5.745 -2 6 C-2 3 -2 3 0 0 Z " fill="#0D3863" transform="translate(490,420)"/>
<path d="M0 0 C0.66 0.33 1.32 0.66 2 1 C-1.465 3.97 -1.465 3.97 -5 7 C-5.33 5.68 -5.66 4.36 -6 3 C-5.195625 2.690625 -4.39125 2.38125 -3.5625 2.0625 C-1.10919595 1.23664655 -1.10919595 1.23664655 0 0 Z " fill="#07305B" transform="translate(313,414)"/>
<path d="M0 0 C0 3 0 3 -2.5 5.6875 C-3.325 6.450625 -4.15 7.21375 -5 8 C-5.66 7.67 -6.32 7.34 -7 7 C-5.54744301 3.17053157 -3.57104439 1.87949705 0 0 Z " fill="#02182E" transform="translate(1375,549)"/>
<path d="M0 0 C2.97 0 5.94 0 9 0 C9 0.66 9 1.32 9 2 C9.66 2.33 10.32 2.66 11 3 C6.72213252 2.50639991 3.90432869 1.95216435 0 0 Z " fill="#0C1E34" transform="translate(674,478)"/>
<path d="M0 0 C0 3.58912412 -0.66436554 4.10857029 -3 6.6875 C-3.556875 7.31011719 -4.11375 7.93273437 -4.6875 8.57421875 C-5.120625 9.04472656 -5.55375 9.51523437 -6 10 C-6.66 9.34 -7.32 8.68 -8 8 C-5.36 5.36 -2.72 2.72 0 0 Z " fill="#17507F" transform="translate(297,411)"/>
<path d="M0 0 C0.66 0.66 1.32 1.32 2 2 C0.33333333 5.33333333 -1.33333333 8.66666667 -3 12 C-3.88336837 9.5332355 -4.1312406 8.36140628 -3.22265625 5.859375 C-2.83980469 5.16328125 -2.45695312 4.4671875 -2.0625 3.75 C-1.68222656 3.04359375 -1.30195313 2.3371875 -0.91015625 1.609375 C-0.60980469 1.07828125 -0.30945313 0.5471875 0 0 Z " fill="#E6F3F9" transform="translate(309,360)"/>
<path d="M0 0 C0.33 2.97 0.66 5.94 1 9 C-1.83328987 6.16671013 -2.7191375 4.64553172 -4 1 C-2 0 -2 0 0 0 Z " fill="#0C3963" transform="translate(462,587)"/>
<path d="M0 0 C0.66 0 1.32 0 2 0 C4.61046448 2.84777943 6.42676569 5.13066838 7 9 C4.03595495 6.19195732 1.55500981 3.81684226 0 0 Z " fill="#132135" transform="translate(1208,580)"/>
<path d="M0 0 C1.32 0 2.64 0 4 0 C2.84826645 2.46800047 1.95216435 4.04783565 0 6 C-0.99 5.67 -1.98 5.34 -3 5 C-2.01 4.34 -1.02 3.68 0 3 C0 2.01 0 1.02 0 0 Z " fill="#081C30" transform="translate(1260,551)"/>
<path d="M0 0 C0 3 0 3 -2 5.1875 C-2.66 5.785625 -3.32 6.38375 -4 7 C-4.99 6.67 -5.98 6.34 -7 6 C-6.525625 5.54625 -6.05125 5.0925 -5.5625 4.625 C-3.90972192 3.06741796 -3.90972192 3.06741796 -3 1 C-2.01 0.67 -1.02 0.34 0 0 Z " fill="#18364E" transform="translate(1263,535)"/>
<path d="M0 0 C0.66 0 1.32 0 2 0 C1.60196439 2.88575819 1.20990931 3.82189513 -1.0625 5.75 C-1.701875 6.1625 -2.34125 6.575 -3 7 C-3 5.68 -3 4.36 -3 3 C-2.34 3 -1.68 3 -1 3 C-0.67 2.01 -0.34 1.02 0 0 Z " fill="#1E4265" transform="translate(306,502)"/>
<path d="M0 0 C0.33 0.99 0.66 1.98 1 3 C-1.375 4.5625 -1.375 4.5625 -4 6 C-4.66 5.67 -5.32 5.34 -6 5 C-4.02 3.35 -2.04 1.7 0 0 Z " fill="#152740" transform="translate(844,482)"/>
<path d="M0 0 C-0.66 0 -1.32 0 -2 0 C-2.33 0.99 -2.66 1.98 -3 3 C-4.98 3 -6.96 3 -9 3 C-6.07868595 -0.19953443 -4.37453972 -1.45817991 0 0 Z " fill="#0C1F32" transform="translate(754,480)"/>
<path d="M0 0 C0.66 0 1.32 0 2 0 C2 2.97 2 5.94 2 9 C-1 6 -1 6 -1.25 3.375 C-1 1 -1 1 0 0 Z " fill="#BFD3DB" transform="translate(440,395)"/>
<path d="M0 0 C0.66 0.99 1.32 1.98 2 3 C1.01 3.33 0.02 3.66 -1 4 C-2.22520264 7.00847418 -2.22520264 7.00847418 -3 10 C-4 7 -4 7 -3.22265625 5.17578125 C-2.1484375 3.45052083 -1.07421875 1.72526042 0 0 Z " fill="#0E2B51" transform="translate(447,382)"/>
<path d="M0 0 C1.65 0 3.3 0 5 0 C5 1.65 5 3.3 5 5 C5.66 5.33 6.32 5.66 7 6 C5.1875 5.8125 5.1875 5.8125 3 5 C1.25 2.4375 1.25 2.4375 0 0 Z " fill="#0D3560" transform="translate(345,366)"/>
<path d="M0 0 C0.66 0 1.32 0 2 0 C2 1.65 2 3.3 2 5 C1.01 5 0.02 5 -1 5 C-1.33 5.66 -1.66 6.32 -2 7 C-1.125 1.125 -1.125 1.125 0 0 Z " fill="#0D2337" transform="translate(1209,497)"/>
<path d="M0 0 C0.66 0.66 1.32 1.32 2 2 C1.67 2.99 1.34 3.98 1 5 C-0.98 5.33 -2.96 5.66 -5 6 C-3.35 4.02 -1.7 2.04 0 0 Z " fill="#0B2135" transform="translate(1316,485)"/>
<path d="M0 0 C1.485 0.99 1.485 0.99 3 2 C4.32 1.34 5.64 0.68 7 0 C5.35 1.98 3.7 3.96 2 6 C1.34 5.34 0.68 4.68 0 4 C0 2.68 0 1.36 0 0 Z " fill="#053058" transform="translate(272,451)"/>
<path d="M0 0 C1.32 0.66 2.64 1.32 4 2 C2.35 3.65 0.7 5.3 -1 7 C-0.67 4.69 -0.34 2.38 0 0 Z " fill="#0A3960" transform="translate(443,430)"/>
</svg>
